<?xml version="1.0" standalone="no"?>
<!DOCTYPE svg PUBLIC "-//W3C//DTD SVG 20010904//EN"
 "http://www.w3.org/TR/2001/REC-SVG-20010904/DTD/svg10.dtd">
<svg version="1.0" xmlns="http://www.w3.org/2000/svg"
 width="512.000000pt" height="512.000000pt" viewBox="0 0 512.000000 512.000000"
 preserveAspectRatio="xMidYMid meet">
<metadata>
Created by potrace 1.14, written by Peter Selinger 2001-2017
</metadata>
<g transform="translate(0.000000,512.000000) scale(0.100000,-0.100000)"
fill="#000000" stroke="none">
<path d="M2362 4193 c-198 -195 -329 -358 -451 -561 -34 -56 -65 -112 -70
-125 l-9 -22 339 -3 339 -3 1 248 c0 136 2 328 3 426 1 97 -1 177 -5 177 -4 0
-70 -62 -147 -137z"/>
<path d="M2649 4148 c0 -101 -1 -293 -2 -427 l-2 -244 338 -4 338 -4 -41 80
c-60 115 -183 299 -279 419 -86 106 -328 362 -343 362 -4 0 -8 -82 -9 -182z"/>
<path d="M2195 4299 c-444 -94 -878 -387 -1108 -750 l-36 -56 314 -2 313 -2
52 95 c122 227 278 437 483 650 64 68 81 86 76 85 -2 0 -44 -9 -94 -20z"/>
<path d="M2895 4289 c11 -13 36 -40 56 -60 20 -21 56 -61 80 -89 24 -29 56
-66 71 -84 95 -108 267 -375 329 -510 l34 -75 80 -2 c44 0 187 -2 318 -4 l237
-3 -22 37 c-126 209 -374 453 -593 583 -178 106 -395 189 -585 225 l-24 4 19
-22z"/>
<path d="M38 3220 c-27 -7 -24 70 -32 -701 l-6 -565 125 -2 125 -2 1 207 c1
369 4 703 6 703 3 0 69 -115 110 -190 45 -83 83 -152 103 -185 9 -16 31 -55
47 -85 17 -30 40 -73 53 -95 12 -22 59 -105 103 -185 44 -80 86 -152 93 -160
10 -12 39 -15 141 -15 l128 0 1 110 c1 61 4 345 8 633 l5 522 -22 1 c-12 0
-68 1 -125 2 l-102 2 -1 -120 c0 -109 -6 -598 -8 -720 l-1 -50 -56 100 c-31
55 -72 129 -91 165 -33 59 -142 254 -190 340 -11 19 -50 90 -87 158 -38 68
-73 125 -80 127 -19 7 -224 10 -248 5z"/>
<path d="M1303 3137 c0 -40 -3 -325 -7 -634 l-6 -561 82 -4 c46 -2 263 -3 483
-3 l399 0 1 110 0 110 -140 1 c-77 1 -231 3 -342 4 -121 1 -205 5 -209 11 -6
10 -6 310 0 317 4 3 512 2 579 -1 35 -2 37 -1 38 28 0 16 2 62 3 100 1 39 -1
75 -6 81 -5 7 -104 12 -305 13 -163 1 -299 4 -303 6 -3 2 -5 61 -5 132 l1 128
332 -1 c183 0 333 2 333 5 1 3 3 54 4 114 l3 107 -92 1 c-50 0 -260 2 -467 4
l-375 4 -1 -72z"/>
<path d="M4498 3205 c-2 -2 -19 -6 -40 -9 -151 -24 -282 -121 -329 -245 -16
-43 -21 -78 -21 -146 0 -218 92 -287 529 -396 131 -32 193 -65 217 -112 24
-51 15 -100 -28 -143 -88 -88 -352 -85 -437 5 -26 27 -50 79 -52 111 -2 28 -5
30 -42 31 -22 0 -79 1 -128 2 l-87 2 0 -30 c1 -151 113 -304 262 -359 97 -36
125 -41 258 -41 126 0 171 5 245 30 115 38 199 109 244 205 23 49 26 67 25
160 -1 83 -5 114 -21 150 -51 110 -143 164 -398 230 -207 54 -224 60 -269 81
-47 22 -78 68 -71 104 2 11 4 28 4 37 2 34 61 87 114 103 149 44 317 -20 350
-133 l14 -47 117 -5 c64 -3 121 -3 126 -2 23 8 2 110 -39 190 -47 92 -167 181
-286 212 -42 11 -249 23 -257 15z"/>
<path d="M2380 3191 c0 -9 111 -425 120 -451 5 -14 12 -36 14 -50 4 -22 54
-211 116 -440 11 -41 35 -131 54 -200 l33 -125 126 -1 125 -2 17 73 c9 41 18
84 20 97 3 13 27 130 55 260 27 131 52 248 54 260 3 13 7 32 9 43 3 11 15 67
27 125 22 108 39 147 41 95 1 -34 2 -39 23 -139 8 -39 29 -145 46 -236 17 -91
35 -185 40 -210 5 -25 12 -58 15 -75 3 -16 10 -52 15 -80 22 -123 41 -209 45
-214 3 -2 60 -5 128 -6 l122 -1 21 76 c20 70 41 140 189 650 125 429 154 534
152 536 -3 3 -199 7 -244 5 -22 -1 -21 2 -58 -161 -53 -232 -180 -738 -184
-735 -3 3 -6 11 -7 18 -9 59 -16 99 -29 160 -7 40 -19 99 -25 132 -6 33 -13
71 -16 85 -34 177 -44 230 -49 260 -3 19 -9 55 -14 80 -5 25 -15 73 -22 108
l-12 62 -138 0 c-76 0 -140 -4 -143 -8 -3 -5 -8 -24 -11 -43 -3 -19 -17 -88
-31 -154 -14 -66 -27 -130 -30 -142 -7 -36 -13 -66 -18 -93 -7 -33 -25 -120
-30 -145 -2 -11 -12 -56 -21 -100 -9 -44 -18 -89 -21 -100 -2 -11 -9 -45 -16
-75 l-11 -55 -13 45 c-9 34 -92 411 -119 543 -2 10 -6 26 -9 35 -3 9 -8 33
-11 52 -3 19 -12 63 -20 96 -8 34 -16 74 -19 88 -12 64 -4 61 -151 62 -74 1
-135 -2 -135 -5z"/>
<path d="M1053 1608 c59 -107 255 -332 372 -428 211 -174 491 -312 740 -365
91 -20 127 -26 130 -23 2 1 -38 46 -88 99 -190 197 -368 440 -475 646 l-53
102 -137 1 c-75 0 -221 2 -324 3 l-186 2 21 -37z"/>
<path d="M1847 1606 c59 -117 157 -265 272 -411 97 -122 345 -384 355 -374 3
3 7 186 10 407 l4 402 -147 1 c-80 0 -228 2 -328 3 l-182 2 16 -30z"/>
<path d="M2620 1442 c-1 -103 -3 -287 -4 -409 l-2 -222 56 49 c203 176 446
473 584 713 l27 47 -53 1 c-29 0 -178 2 -330 4 l-276 4 -2 -187z"/>
<path d="M3426 1611 c-3 -4 -21 -39 -42 -77 -35 -66 -164 -270 -197 -310 -9
-10 -37 -46 -64 -79 -74 -93 -174 -201 -331 -360 -7 -6 198 34 264 53 153 43
346 131 483 220 31 20 58 39 61 42 3 3 31 24 62 48 72 53 219 197 287 280 65
80 134 182 124 183 -59 6 -644 6 -647 0z"/>
</g>
</svg>
